<svg width="60" height="60" viewBox="0 0 60 60" fill="none" xmlns="http://www.w3.org/2000/svg">
<g clip-path="url(#clip0)">
<path d="M30.0001 60.0001C46.5686 60.0001 60.0001 46.5686 60.0001 30.0001C60.0001 13.4315 46.5686 0 30.0001 0C13.4315 0 0 13.4315 0 30.0001C0 46.5686 13.4315 60.0001 30.0001 60.0001Z" fill="#FFC10E"/>
<path d="M10.3041 30.02C10.3041 40.8963 19.1218 49.714 29.9981 49.714C40.875 49.714 49.6927 40.8963 49.6927 30.02H10.3041Z" fill="white"/>
<path d="M21.2345 30.02C21.2345 35.8987 21.2345 41.7774 21.2345 47.6562C21.9971 48.0361 22.7883 48.3663 23.6031 48.6462C23.6031 42.4373 23.6031 36.2288 23.6031 30.02H21.2345Z" fill="#CCCBCB"/>
<path d="M35.8684 30.02C35.8684 36.2881 35.8684 42.5557 35.8684 48.8239C36.6827 48.5699 37.4719 48.2601 38.237 47.9073C38.237 41.9446 38.237 35.9826 38.237 30.02H35.8684Z" fill="#CCCBCB"/>
<path d="M27.7485 20.1033C27.5353 16.1464 24.7111 13.3226 20.7547 13.1095C16.8068 12.8968 13.9565 16.4672 13.7609 20.1033C13.6785 21.6305 16.0474 21.6225 16.1295 20.1033C16.4506 14.1417 25.0594 14.1417 25.38 20.1033C25.462 21.6225 27.8309 21.6305 27.7485 20.1033Z" fill="#333333"/>
<path d="M44.8148 20.1033C44.6016 16.1464 41.7774 13.3226 37.821 13.1095C33.8731 12.8968 31.0233 16.4672 30.8272 20.1033C30.7448 21.6305 33.1137 21.6225 33.1957 20.1033C33.5169 14.1417 42.1252 14.1417 42.4463 20.1033C42.5283 21.6225 44.8973 21.6305 44.8148 20.1033Z" fill="#333333"/>
</g>
<defs>
<clipPath id="clip0">
<rect width="60" height="60" fill="white"/>
</clipPath>
</defs>
</svg>
