<svg width="57" height="57" viewBox="0 0 57 57" fill="none" xmlns="http://www.w3.org/2000/svg">
<path d="M49.495 10.9488C48.2819 9.73514 46.8417 8.77241 45.2564 8.11558C43.6712 7.45874 41.9721 7.12067 40.2562 7.12067C38.5403 7.12067 36.8412 7.45874 35.256 8.11558C33.6708 8.77241 32.2305 9.73514 31.0175 10.9488L28.5 13.4663L25.9825 10.9488C23.5322 8.49848 20.2089 7.12194 16.7437 7.12194C13.2785 7.12194 9.95525 8.49848 7.50498 10.9488C5.05471 13.399 3.67816 16.7223 3.67816 20.1875C3.67816 23.6527 5.05471 26.976 7.50498 29.4263L10.0225 31.9438L28.5 50.4213L46.9775 31.9438L49.495 29.4263C50.7086 28.2132 51.6713 26.7729 52.3281 25.1877C52.985 23.6025 53.3231 21.9034 53.3231 20.1875C53.3231 18.4716 52.985 16.7725 52.3281 15.1873C51.6713 13.6021 50.7086 12.1618 49.495 10.9488V10.9488Z" stroke="#212D59" stroke-width="4.75" stroke-linecap="round" stroke-linejoin="round"/>
</svg>
