<svg width="60" height="60" viewBox="0 0 60 60" fill="none" xmlns="http://www.w3.org/2000/svg">
<g clip-path="url(#clip0)">
<path d="M30.0001 60.0001C46.5686 60.0001 60.0001 46.5686 60.0001 30.0001C60.0001 13.4315 46.5686 0 30.0001 0C13.4315 0 0 13.4315 0 30.0001C0 46.5686 13.4315 60.0001 30.0001 60.0001Z" fill="#FFC10E"/>
<path d="M20.8811 24.3639C23.4832 24.3639 25.5927 22.2545 25.5927 19.6524C25.5927 17.0502 23.4832 14.9408 20.8811 14.9408C18.279 14.9408 16.1696 17.0502 16.1696 19.6524C16.1696 22.2545 18.279 24.3639 20.8811 24.3639Z" fill="#333333"/>
<path d="M38.6973 24.3639C41.2994 24.3639 43.4088 22.2545 43.4088 19.6524C43.4088 17.0502 41.2994 14.9408 38.6973 14.9408C36.0951 14.9408 33.9857 17.0502 33.9857 19.6524C33.9857 22.2545 36.0951 24.3639 38.6973 24.3639Z" fill="#333333"/>
<path d="M13.3283 41.3454C24.2648 41.3454 35.2018 41.3454 46.1384 41.3454C47.666 41.3454 47.666 38.9768 46.1384 38.9768C35.2018 38.9768 24.2648 38.9768 13.3283 38.9768C11.8006 38.9768 11.8006 41.3454 13.3283 41.3454Z" fill="#333333"/>
</g>
<defs>
<clipPath id="clip0">
<rect width="60" height="60" fill="white"/>
</clipPath>
</defs>
</svg>
