<svg width="60" height="60" viewBox="0 0 60 60" fill="none" xmlns="http://www.w3.org/2000/svg">
<path d="M29.9999 59.9999C46.5684 59.9999 59.9999 46.5684 59.9999 29.9999C59.9999 13.4314 46.5684 0 29.9999 0C13.4314 0 0 13.4314 0 29.9999C0 46.5684 13.4314 59.9999 29.9999 59.9999Z" fill="#FFC10E"/>
<path d="M45.1544 44.8289C36.7697 36.2685 23.0943 36.3041 14.7584 44.9179C13.6963 46.0151 15.3695 47.6915 16.4329 46.5925C23.8858 38.8909 35.9772 38.8441 43.4798 46.5035C44.5499 47.5964 46.2236 45.9204 45.1544 44.8289Z" fill="#333333"/>
<path d="M20.8811 24.3639C23.4832 24.3639 25.5927 22.2544 25.5927 19.6523C25.5927 17.0502 23.4832 14.9408 20.8811 14.9408C18.279 14.9408 16.1696 17.0502 16.1696 19.6523C16.1696 22.2544 18.279 24.3639 20.8811 24.3639Z" fill="#333333"/>
<path d="M38.6973 24.3639C41.2994 24.3639 43.4089 22.2544 43.4089 19.6523C43.4089 17.0502 41.2994 14.9408 38.6973 14.9408C36.0952 14.9408 33.9858 17.0502 33.9858 19.6523C33.9858 22.2544 36.0952 24.3639 38.6973 24.3639Z" fill="#333333"/>
<path d="M43.4448 23.8782C43.4448 23.8782 39.9612 28.1666 39.9612 32.5907C39.9612 34.5154 41.5196 36.0748 43.4443 36.0753C45.3709 36.0744 46.9299 34.515 46.9299 32.5903C46.9299 30.4481 43.4448 23.8782 43.4448 23.8782Z" fill="#A2D4DE"/>
</svg>
